Coordinates
version=1
nRows=9
nColumns=36
inDegrees=yes

Units are S.I. units (second, meters, Newtons, ...)
If the header above contains a line with 'inDegrees', this indicates whether rotational values are in degrees (yes) or radians (no).

endheader
time	pelvis_tilt	pelvis_list	pelvis_rotation	pelvis_tx	pelvis_ty	pelvis_tz	hip_flexion_r	hip_adduction_r	hip_rotation_r	knee_angle_r	knee_angle_r_beta	ankle_angle_r	subtalar_angle_r	mtp_angle_r	hip_flexion_l	hip_adduction_l	hip_rotation_l	knee_angle_l	knee_angle_l_beta	ankle_angle_l	subtalar_angle_l	mtp_angle_l	lumbar_extension	lumbar_bending	lumbar_rotation	arm_flex_r	arm_add_r	arm_rot_r	elbow_flex_r	pro_sup_r	arm_flex_l	arm_add_l	arm_rot_l	elbow_flex_l	pro_sup_l
     10.43333330	     -7.34883837	      2.76372638	     -1.00000732	     -0.12422014	      0.91697272	      0.11870009	      5.78230085	    -10.29070118	     -5.55873548	      0.48329400	      0.00843507	      4.07319661	     -3.06241863	     -7.49999987	      4.26027015	    -10.42455888	    -18.00666376	      0.40280639	      0.00703030	      0.84495969	      0.92972437	     -7.49999987	      2.21076858	     -2.02179570	      3.72530162	     75.37975346	     11.36312100	     66.87010416	    116.45918381	     96.64164026	     55.08709523	     11.37730750	     55.09830073	    128.78102674	     77.67458970
     10.45000000	     -7.51228568	      2.77824133	     -1.06018548	     -0.12308967	      0.91723294	      0.11876979	      5.93676280	    -10.27914721	     -5.34859644	      0.39660292	      0.00692203	      4.07913277	     -3.02149514	     -7.49999987	      4.40857052	    -10.39356842	    -17.85197003	      0.35916015	      0.00626853	      0.71570205	      0.76935064	     -7.49999987	      2.32596890	     -2.01766807	      3.53912811	     75.08821131	     11.38133852	     66.95746944	    116.51484373	     94.52995930	     55.24150922	     10.76466798	     54.88575516	    128.42056619	     77.01137719
     10.46666670	     -7.61005140	      2.77675127	     -1.24341787	     -0.12374140	      0.91581073	      0.11903138	      6.06613421	    -10.24285937	     -4.84914194	      0.33858317	      0.00590939	      3.91446433	     -3.43791688	     -7.49999987	      4.47813687	    -10.39908587	    -18.14245399	      0.33041604	      0.00576685	      0.81071515	      1.04010206	     -7.49999987	      2.49742040	     -1.94773221	      3.46027195	     74.70285400	     11.44991940	     66.78064804	    116.63224729	     98.47870097	     55.15596872	     10.46485482	     54.62108828	    127.73924271	     78.82230897
     10.48333330	     -7.69744358	      2.78090853	     -1.31666849	     -0.12430451	      0.91565426	      0.11938985	      6.15781421	    -10.21991106	     -4.59126297	      0.30694017	      0.00535712	      4.01028462	     -3.47469459	     -7.49999987	      4.58256553	    -10.39875561	    -17.99839086	      0.31167729	      0.00543979	      0.73564184	      0.78685627	     -7.49999987	      2.63934210	     -1.87253393	      3.50843949	     74.51289285	     11.41334832	     66.74209939	    116.88336948	     97.33345745	     55.13859806	     10.58776289	     54.94370217	    127.16571192	     78.38598044
     10.50000000	     -7.90196725	      2.79527632	     -1.52746714	     -0.12524796	      0.91613776	      0.12010826	      6.48179043	    -10.19863519	     -4.20630373	      0.27839010	      0.00485882	      4.00530888	     -3.60287540	     -7.49999987	      4.74166925	    -10.42522021	    -18.17423622	      0.29743129	      0.00519116	      0.89540242	      1.00684773	     -7.49999987	      2.83554642	     -1.77586581	      3.89889150	     74.30626433	     11.38955064	     66.65478198	    117.31949383	     98.33916278	     54.95380768	     10.78563019	     55.34072368	    126.84121045	     78.78309713
     10.51666670	     -8.06069361	      2.78764006	     -1.59189041	     -0.12627591	      0.91504186	      0.11946158	      6.74391998	    -10.19029192	     -4.02472351	      0.25672234	      0.00448065	      3.91304721	     -3.72005671	     -7.49999987	      4.93565651	    -10.43509110	    -18.14410280	      0.28387668	      0.00495458	      0.91155059	      0.93151724	     -7.49999987	      2.89550260	     -1.64635084	      4.13776170	     74.29111015	     11.24105973	     66.57631584	    117.54776195	     97.63272439	     55.05328637	     11.09765000	     55.70217870	    126.57713406	     78.15042882
     10.53333330	     -8.22111698	      2.83474544	     -1.81055484	     -0.12695116	      0.91609667	      0.11983803	      7.03252820	    -10.21325802	     -3.70134208	      0.24611762	      0.00429556	      3.74905256	     -3.81152900	     -7.49999987	      5.10878693	    -10.41997206	    -18.24034051	      0.27641505	      0.00482435	      0.85683553	      0.91569120	     -7.49999987	      2.95318824	     -1.65744554	      4.25437894	     74.16304866	     11.26907068	     66.40047708	    117.71025962	     97.76394945	     55.05044878	     10.97816233	     55.56893448	    126.31943579	     77.80321636
     10.55000000	     -8.34082800	      2.84277775	     -1.92485055	     -0.12581266	      0.91612129	      0.11987686	      7.23145951	    -10.19546972	     -3.52619479	      0.23508831	      0.00410306	      3.62422681	     -3.88828304	     -7.49999987	      5.23131375	    -10.42850524	    -18.35538317	      0.26669703	      0.00465474	      0.82489692	      1.00943860	     -7.49999987	      2.99966632	     -1.60095284	      4.31496898	     74.03093078	     11.29827860	     66.57241557	    117.88947535	     97.11014340	     54.94680833	     11.05407553	     55.80434106	    126.49568065	     77.78639407
     10.56666670	     -8.48407453	      2.86540475	     -2.04717655	     -0.12751884	      0.91504285	      0.11995733	      7.44664326	    -10.21871046	     -3.36501837	      0.22828342	      0.00398430	      3.38189559	     -4.08088072	     -7.49999987	      5.37384487	    -10.40905805	    -18.40417614	      0.26306467	      0.00459134	      0.83883816	      0.90789402	     -7.49999987	      3.13818552	     -1.55765912	      4.60292665	     74.09380459	     11.28803001	     66.40842482	    117.83782171	     97.80162876	     54.95854819	     11.27031027	     55.93007656	    126.84925963	     78.24989039
